<svg width="620" height="621" viewBox="0 0 620 621" fill="none" xmlns="http://www.w3.org/2000/svg">
<path opacity="0.025" fill-rule="evenodd" clip-rule="evenodd" d="M563.177 -546.248C668.989 -534.591 710.056 -401.103 783.181 -323.727C836.971 -266.808 883.901 -210.059 936.082 -151.66C1014.37 -64.0387 1158.69 -11.7833 1166.67 105.46C1174.32 217.766 1046.76 288.851 971.782 372.801C898.011 455.401 836.077 555.704 731.65 592.552C625.081 630.156 494.541 636.46 399.985 574.565C307.678 514.143 328.209 368.251 258.43 282.79C191.975 201.403 46.1856 197.078 10.9346 98.0892C-24.0511 -0.154724 31.3 -110.653 86.9025 -198.877C138.519 -280.776 231.448 -318.849 309.656 -375.89C393.617 -437.127 459.889 -557.626 563.177 -546.248Z" fill="#32384C"/>
</svg>
